<?xml version="1.0" encoding="UTF-8"?>
<svg xmlns="http://www.w3.org/2000/svg" xmlns:xlink="http://www.w3.org/1999/xlink" width="1920" height="1080" viewBox="0 0 1920 1080">
<defs>
<g>
<g id="glyph-0-0">
<path d="M 1.925781 -2.390625 C 1.925781 -2.179688 1.855469 -2.007812 1.71875 -1.871094 C 1.585938 -1.734375 1.414062 -1.667969 1.203125 -1.667969 C 0.996094 -1.667969 0.824219 -1.734375 0.6875 -1.871094 C 0.550781 -2.007812 0.484375 -2.179688 0.484375 -2.390625 C 0.484375 -2.597656 0.554688 -2.769531 0.6875 -2.902344 C 0.824219 -3.039062 0.996094 -3.105469 1.203125 -3.105469 C 1.414062 -3.105469 1.585938 -3.039062 1.71875 -2.902344 C 1.855469 -2.769531 1.925781 -2.597656 1.925781 -2.390625 Z "/>
</g>
<g id="glyph-0-1">
<rect x="0" y="0" width="0" height="0" mask="url(#mask-0)"/>
</g>
<g id="glyph-1-0">
<path d="M 1.171875 -4.640625 C 1.046875 -3.511719 0.773438 -2.667969 0.351562 -2.101562 L 0.574219 -1.695312 C 0.90625 -2.074219 1.171875 -2.605469 1.375 -3.292969 L 2.226562 -3.292969 C 2.152344 -2.828125 2.054688 -2.398438 1.921875 -2 C 1.707031 -2.140625 1.480469 -2.253906 1.253906 -2.339844 L 1.054688 -1.960938 C 1.292969 -1.867188 1.527344 -1.746094 1.761719 -1.585938 C 1.421875 -0.792969 0.941406 -0.1875 0.3125 0.234375 L 0.539062 0.652344 C 1.699219 -0.105469 2.40625 -1.433594 2.667969 -3.320312 L 2.667969 -3.734375 L 1.480469 -3.734375 C 1.539062 -4.011719 1.59375 -4.3125 1.632812 -4.640625 L 2.828125 -4.640625 L 2.828125 -5.09375 L 0.460938 -5.09375 L 0.460938 -4.640625 Z M 5.992188 -4.90625 L 4.96875 -4.726562 L 5.242188 -4.921875 C 5.09375 -5.074219 4.894531 -5.253906 4.625 -5.460938 L 4.3125 -5.261719 C 4.566406 -5.058594 4.765625 -4.878906 4.925781 -4.71875 L 4.019531 -4.558594 C 3.941406 -4.8125 3.875 -5.101562 3.820312 -5.425781 L 3.367188 -5.378906 C 3.433594 -5.046875 3.507812 -4.753906 3.585938 -4.488281 L 2.828125 -4.355469 L 2.894531 -3.941406 L 3.71875 -4.085938 C 3.792969 -3.886719 3.875 -3.714844 3.96875 -3.574219 C 4.007812 -3.511719 4.046875 -3.445312 4.101562 -3.378906 C 3.707031 -3.21875 3.261719 -3.085938 2.765625 -2.980469 L 2.941406 -2.585938 C 3.472656 -2.714844 3.953125 -2.875 4.386719 -3.058594 C 4.5 -2.945312 4.625 -2.847656 4.765625 -2.753906 C 5.046875 -2.574219 5.320312 -2.480469 5.585938 -2.480469 C 5.839844 -2.480469 6.058594 -2.734375 6.253906 -3.226562 L 5.875 -3.472656 C 5.765625 -3.113281 5.652344 -2.933594 5.539062 -2.921875 C 5.375 -2.921875 5.171875 -3 4.933594 -3.148438 C 4.878906 -3.179688 4.832031 -3.21875 4.792969 -3.261719 C 5.195312 -3.480469 5.539062 -3.738281 5.832031 -4.035156 L 5.511719 -4.273438 C 5.242188 -4.007812 4.898438 -3.765625 4.5 -3.566406 C 4.433594 -3.648438 4.367188 -3.738281 4.3125 -3.839844 C 4.261719 -3.933594 4.207031 -4.039062 4.160156 -4.160156 L 6.058594 -4.492188 Z M 6.132812 -2.066406 L 4.171875 -1.652344 C 4.101562 -1.933594 4.035156 -2.253906 3.980469 -2.625 L 3.527344 -2.582031 C 3.59375 -2.199219 3.660156 -1.859375 3.738281 -1.558594 L 2.621094 -1.328125 L 2.6875 -0.898438 L 3.859375 -1.148438 C 3.925781 -0.945312 3.992188 -0.78125 4.074219 -0.640625 C 4.105469 -0.574219 4.148438 -0.507812 4.195312 -0.441406 C 3.679688 -0.199219 3.085938 0 2.414062 0.148438 L 2.59375 0.558594 C 3.285156 0.394531 3.898438 0.179688 4.445312 -0.0859375 C 4.554688 0.0351562 4.667969 0.148438 4.800781 0.238281 C 5.066406 0.433594 5.320312 0.535156 5.558594 0.535156 C 5.847656 0.535156 6.101562 0.226562 6.320312 -0.386719 L 5.941406 -0.640625 C 5.808594 -0.160156 5.660156 0.078125 5.511719 0.0859375 C 5.367188 0.0859375 5.1875 0.0078125 4.972656 -0.152344 C 4.921875 -0.199219 4.875 -0.246094 4.832031 -0.292969 C 5.265625 -0.554688 5.640625 -0.847656 5.960938 -1.179688 L 5.625 -1.421875 C 5.332031 -1.125 4.988281 -0.859375 4.582031 -0.632812 C 4.519531 -0.71875 4.46875 -0.8125 4.421875 -0.914062 C 4.375 -1.007812 4.332031 -1.121094 4.292969 -1.238281 L 6.199219 -1.640625 Z M 4.582031 -2.601562 L 4.285156 -2.414062 C 4.527344 -2.207031 4.714844 -2.011719 4.847656 -1.832031 L 5.140625 -2.039062 C 5.007812 -2.199219 4.820312 -2.386719 4.582031 -2.601562 Z "/>
</g>
<g id="glyph-1-1">
<path d="M 0.648438 -4.71875 L 0.648438 -4.273438 L 3.09375 -4.273438 L 3.09375 -3.679688 L 1.039062 -3.679688 L 1.039062 -3.234375 L 3.09375 -3.234375 L 3.09375 -2.660156 L 0.453125 -2.660156 L 0.453125 -2.207031 L 1.953125 -2.207031 C 1.640625 -1.425781 1.074219 -0.851562 0.246094 -0.492188 L 0.558594 -0.121094 C 1.179688 -0.425781 1.667969 -0.847656 2.027344 -1.394531 L 2.027344 -1.046875 L 3.453125 -1.046875 L 3.453125 0.0273438 L 1.085938 0.0273438 L 1.085938 0.492188 L 6.214844 0.492188 L 6.214844 0.0273438 L 3.933594 0.0273438 L 3.933594 -1.046875 L 5.820312 -1.046875 L 5.820312 -1.511719 L 2.101562 -1.511719 C 2.226562 -1.726562 2.332031 -1.953125 2.421875 -2.207031 L 6.242188 -2.207031 L 6.242188 -2.660156 L 3.585938 -2.660156 L 3.585938 -3.234375 L 5.679688 -3.234375 L 5.679688 -3.679688 L 3.585938 -3.679688 L 3.585938 -4.273438 L 6.046875 -4.273438 L 6.046875 -4.71875 L 4.566406 -4.71875 C 4.699219 -4.945312 4.800781 -5.1875 4.875 -5.445312 L 4.375 -5.511719 C 4.308594 -5.242188 4.214844 -4.972656 4.082031 -4.71875 L 2.652344 -4.71875 C 2.558594 -5.007812 2.460938 -5.261719 2.367188 -5.488281 L 1.867188 -5.40625 C 1.972656 -5.199219 2.074219 -4.972656 2.167969 -4.71875 Z "/>
</g>
<g id="glyph-1-2">
<path d="M 2.308594 -4.925781 L 2.308594 -4.5 L 4.007812 -4.5 L 4.007812 -4.027344 L 2.59375 -4.027344 L 2.59375 -1.699219 L 4.007812 -1.699219 L 4.007812 -1.195312 L 2.160156 -1.195312 L 2.160156 -0.765625 L 4.007812 -0.765625 L 4.007812 -0.0742188 L 4.472656 -0.0742188 L 4.472656 -0.765625 L 6.285156 -0.765625 L 6.285156 -1.195312 L 4.472656 -1.195312 L 4.472656 -1.699219 L 5.886719 -1.699219 L 5.886719 -4.027344 L 4.472656 -4.027344 L 4.472656 -4.5 L 6.152344 -4.5 L 6.152344 -4.925781 L 4.472656 -4.925781 L 4.472656 -5.433594 L 4.007812 -5.433594 L 4.007812 -4.925781 Z M 5.441406 -2.105469 L 4.460938 -2.105469 L 4.460938 -2.679688 L 5.441406 -2.679688 Z M 4.019531 -2.105469 L 3.039062 -2.105469 L 3.039062 -2.679688 L 4.019531 -2.679688 Z M 3.039062 -3.058594 L 3.039062 -3.625 L 4.019531 -3.625 L 4.019531 -3.058594 Z M 4.460938 -3.625 L 5.441406 -3.625 L 5.441406 -3.058594 L 4.460938 -3.058594 Z M 0.894531 -5.378906 L 0.574219 -5.074219 C 1.007812 -4.738281 1.347656 -4.421875 1.59375 -4.125 L 1.90625 -4.441406 C 1.632812 -4.746094 1.292969 -5.058594 0.894531 -5.378906 Z M 0.375 -3.78125 L 0.375 -3.339844 L 1.375 -3.339844 C 1.148438 -2.96875 0.859375 -2.59375 0.527344 -2.207031 L 0.527344 -1.839844 L 1.535156 -1.839844 C 1.445312 -1.40625 1.328125 -1.019531 1.179688 -0.679688 C 0.898438 -0.601562 0.605469 -0.253906 0.300781 0.351562 L 0.652344 0.671875 C 0.945312 0.0742188 1.167969 -0.226562 1.320312 -0.226562 C 1.375 -0.226562 1.433594 -0.207031 1.488281 -0.152344 C 1.714844 0.0859375 1.960938 0.265625 2.238281 0.386719 C 2.480469 0.492188 2.832031 0.546875 3.285156 0.558594 C 3.679688 0.574219 4.125 0.578125 4.625 0.578125 L 6.28125 0.578125 L 6.386719 0.125 C 5.640625 0.148438 5.035156 0.160156 4.566406 0.160156 C 4.101562 0.160156 3.679688 0.152344 3.320312 0.152344 C 2.933594 0.140625 2.632812 0.09375 2.421875 0.0078125 C 2.199219 -0.09375 1.988281 -0.246094 1.773438 -0.460938 C 1.71875 -0.511719 1.660156 -0.554688 1.605469 -0.59375 C 1.761719 -0.945312 1.886719 -1.394531 1.988281 -1.925781 L 1.988281 -2.246094 L 1.09375 -2.246094 C 1.398438 -2.621094 1.667969 -3.007812 1.90625 -3.398438 L 1.90625 -3.78125 Z "/>
</g>
<g id="glyph-1-3">
<path d="M 4.378906 -5.511719 L 3.886719 -5.433594 C 3.980469 -5.261719 4.058594 -5.066406 4.140625 -4.855469 L 2.671875 -4.855469 L 2.671875 -4.414062 L 3.125 -4.414062 C 3.285156 -4.082031 3.425781 -3.71875 3.535156 -3.332031 L 2.519531 -3.332031 L 2.519531 -2.875 L 6.242188 -2.875 L 6.242188 -3.332031 L 5.21875 -3.332031 C 5.367188 -3.652344 5.507812 -4.011719 5.632812 -4.414062 L 6.121094 -4.414062 L 6.121094 -4.855469 L 4.621094 -4.855469 C 4.539062 -5.09375 4.460938 -5.3125 4.378906 -5.511719 Z M 4.761719 -3.332031 L 3.988281 -3.332031 C 3.875 -3.734375 3.753906 -4.09375 3.621094 -4.414062 L 5.160156 -4.414062 C 5.039062 -4.035156 4.90625 -3.671875 4.761719 -3.332031 Z M 1.101562 0.605469 C 1.472656 0.605469 1.660156 0.414062 1.660156 0.0390625 L 1.660156 -1.925781 C 1.847656 -2.019531 2.039062 -2.113281 2.234375 -2.214844 L 2.234375 -2.699219 C 2.046875 -2.601562 1.859375 -2.5 1.660156 -2.40625 L 1.660156 -3.707031 L 2.226562 -3.707031 L 2.226562 -4.167969 L 1.660156 -4.167969 L 1.660156 -5.441406 L 1.195312 -5.441406 L 1.195312 -4.167969 L 0.367188 -4.167969 L 0.367188 -3.707031 L 1.195312 -3.707031 L 1.195312 -2.207031 C 0.886719 -2.085938 0.566406 -1.988281 0.246094 -1.90625 L 0.367188 -1.425781 C 0.648438 -1.519531 0.921875 -1.621094 1.195312 -1.726562 L 1.195312 -0.078125 C 1.195312 0.078125 1.105469 0.167969 0.933594 0.167969 C 0.761719 0.167969 0.585938 0.152344 0.398438 0.140625 L 0.5 0.605469 Z M 3.792969 -2.699219 C 3.726562 -2.511719 3.640625 -2.320312 3.546875 -2.113281 L 2.433594 -2.113281 L 2.433594 -1.648438 L 3.3125 -1.648438 C 3.179688 -1.398438 3.035156 -1.140625 2.859375 -0.875 C 3.328125 -0.6875 3.761719 -0.507812 4.167969 -0.320312 C 3.738281 -0.0859375 3.148438 0.101562 2.378906 0.234375 L 2.566406 0.667969 C 3.519531 0.480469 4.21875 0.234375 4.667969 -0.0859375 C 5.214844 0.171875 5.695312 0.425781 6.105469 0.671875 L 6.367188 0.292969 C 5.941406 0.046875 5.488281 -0.1875 5.019531 -0.398438 C 5.332031 -0.738281 5.539062 -1.152344 5.648438 -1.648438 L 6.347656 -1.648438 L 6.347656 -2.113281 L 4.039062 -2.113281 C 4.121094 -2.28125 4.195312 -2.460938 4.261719 -2.648438 Z M 5.199219 -1.648438 C 5.085938 -1.226562 4.878906 -0.878906 4.582031 -0.601562 C 4.214844 -0.765625 3.832031 -0.921875 3.445312 -1.066406 C 3.574219 -1.253906 3.695312 -1.445312 3.808594 -1.648438 Z "/>
</g>
<g id="glyph-1-4">
<path d="M 2.148438 -1.1875 L 1.878906 -0.800781 C 2.8125 -0.453125 3.726562 0.0195312 4.613281 0.621094 L 4.878906 0.207031 C 4.566406 0 4.246094 -0.191406 3.914062 -0.375 C 4.511719 -0.847656 5.046875 -1.378906 5.5 -1.972656 L 5.5 -2.378906 L 1.074219 -2.378906 L 1.074219 -1.925781 L 4.90625 -1.925781 C 4.441406 -1.40625 3.96875 -0.964844 3.480469 -0.601562 C 3.054688 -0.8125 2.613281 -1.011719 2.148438 -1.1875 Z M 3.171875 -5.367188 C 2.398438 -4.460938 1.441406 -3.699219 0.285156 -3.09375 L 0.519531 -2.667969 C 1.027344 -2.945312 1.5 -3.246094 1.925781 -3.574219 L 1.925781 -3.179688 L 4.765625 -3.179688 L 4.765625 -3.605469 C 5.195312 -3.285156 5.652344 -3.007812 6.152344 -2.753906 L 6.394531 -3.179688 C 5.300781 -3.714844 4.332031 -4.441406 3.492188 -5.367188 Z M 1.992188 -3.625 C 2.5 -4.019531 2.945312 -4.453125 3.332031 -4.921875 C 3.746094 -4.445312 4.21875 -4.011719 4.738281 -3.625 Z "/>
</g>
<g id="glyph-1-5">
<path d="M 1.726562 -2.695312 C 1.886719 -2.40625 2.066406 -2.039062 2.28125 -1.59375 L 2.546875 -1.992188 C 2.265625 -2.453125 1.992188 -2.867188 1.726562 -3.238281 L 1.726562 -3.679688 L 2.441406 -3.679688 L 2.441406 -4.140625 L 1.726562 -4.140625 L 1.726562 -5.433594 L 1.253906 -5.433594 L 1.253906 -4.140625 L 0.394531 -4.140625 L 0.394531 -3.679688 L 1.253906 -3.679688 L 1.253906 -3.640625 C 1.046875 -2.859375 0.714844 -2.160156 0.253906 -1.535156 L 0.453125 -1.035156 C 0.773438 -1.535156 1.039062 -2.085938 1.253906 -2.695312 L 1.253906 0.652344 L 1.726562 0.652344 Z M 4.160156 -3.90625 L 4.160156 -3.101562 L 2.96875 -3.101562 L 2.695312 -1.507812 L 4.113281 -1.507812 C 3.726562 -0.886719 3.121094 -0.375 2.28125 0.0273438 L 2.535156 0.441406 C 3.226562 0.0390625 3.773438 -0.441406 4.160156 -1.011719 L 4.160156 0.671875 L 4.625 0.671875 L 4.625 -1.507812 L 5.765625 -1.507812 C 5.765625 -1.046875 5.746094 -0.734375 5.714844 -0.558594 C 5.671875 -0.375 5.574219 -0.273438 5.414062 -0.273438 C 5.265625 -0.273438 5.113281 -0.285156 4.941406 -0.300781 L 5.058594 0.140625 C 5.195312 0.140625 5.339844 0.148438 5.488281 0.148438 C 5.792969 0.140625 5.988281 0.0078125 6.082031 -0.246094 C 6.160156 -0.472656 6.207031 -1.027344 6.207031 -1.914062 L 4.625 -1.914062 L 4.625 -2.6875 L 6 -2.6875 L 6 -4.332031 L 5.019531 -4.332031 C 5.246094 -4.632812 5.433594 -4.972656 5.59375 -5.347656 L 5.132812 -5.472656 C 4.953125 -5.035156 4.746094 -4.652344 4.507812 -4.332031 L 2.746094 -4.332031 L 2.746094 -3.90625 Z M 4.160156 -2.6875 L 4.160156 -1.914062 L 3.179688 -1.914062 L 3.332031 -2.6875 Z M 4.625 -3.101562 L 4.625 -3.90625 L 5.574219 -3.90625 L 5.574219 -3.101562 Z M 3.507812 -5.414062 L 3.074219 -5.273438 C 3.28125 -5.007812 3.46875 -4.707031 3.640625 -4.359375 L 4.046875 -4.539062 C 3.894531 -4.847656 3.714844 -5.140625 3.507812 -5.414062 Z "/>
</g>
<g id="glyph-1-6">
<path d="M 1.738281 -1.78125 L 1.738281 -1.367188 L 2.148438 -1.367188 C 2.453125 -0.945312 2.859375 -0.578125 3.351562 -0.273438 C 2.753906 -0.0195312 2.058594 0.160156 1.285156 0.273438 L 1.492188 0.695312 C 2.375 0.546875 3.152344 0.308594 3.828125 -0.0117188 C 4.460938 0.308594 5.242188 0.539062 6.160156 0.695312 L 6.367188 0.28125 C 5.574219 0.171875 4.878906 -0.0078125 4.28125 -0.261719 C 4.820312 -0.578125 5.273438 -0.972656 5.648438 -1.425781 L 5.648438 -1.78125 Z M 2.652344 -1.367188 L 5.019531 -1.367188 C 4.671875 -1.027344 4.265625 -0.734375 3.800781 -0.488281 C 3.339844 -0.726562 2.960938 -1.019531 2.652344 -1.367188 Z M 1.351562 -3.273438 L 2.472656 -3.273438 L 2.472656 -2.234375 L 5.171875 -2.234375 L 5.171875 -3.273438 L 6.199219 -3.273438 L 6.199219 -3.714844 L 5.171875 -3.714844 L 5.171875 -4.261719 L 4.707031 -4.261719 L 4.707031 -3.714844 L 2.941406 -3.714844 L 2.941406 -4.253906 L 2.472656 -4.253906 L 2.472656 -3.714844 L 1.351562 -3.714844 L 1.351562 -4.472656 L 6.214844 -4.472656 L 6.214844 -4.925781 L 3.925781 -4.925781 C 3.855469 -5.125 3.773438 -5.3125 3.695312 -5.480469 L 3.1875 -5.398438 C 3.28125 -5.253906 3.359375 -5.101562 3.441406 -4.925781 L 0.875 -4.925781 L 0.875 -2.753906 C 0.859375 -1.441406 0.660156 -0.414062 0.273438 0.328125 L 0.632812 0.648438 C 1.085938 -0.207031 1.328125 -1.339844 1.351562 -2.753906 Z M 2.941406 -3.273438 L 4.707031 -3.273438 L 4.707031 -2.640625 L 2.941406 -2.640625 Z "/>
</g>
<g id="glyph-1-7">
<path d="M 0.507812 -4.832031 L 0.507812 -4.378906 L 3.101562 -4.378906 L 3.101562 -3.828125 L 1.332031 -3.828125 L 1.332031 0.0664062 L 0.378906 0.0664062 L 0.378906 0.511719 L 6.292969 0.511719 L 6.292969 0.0664062 L 5.308594 0.0664062 L 5.308594 -3.828125 L 3.582031 -3.828125 L 3.582031 -4.378906 L 6.160156 -4.378906 L 6.160156 -4.832031 L 3.582031 -4.832031 L 3.582031 -5.445312 L 3.101562 -5.445312 L 3.101562 -4.832031 Z M 1.808594 0.0664062 L 1.808594 -0.519531 L 4.832031 -0.519531 L 4.832031 0.0664062 Z M 1.808594 -0.914062 L 1.808594 -1.480469 L 4.832031 -1.480469 L 4.832031 -0.914062 Z M 1.808594 -1.867188 L 1.808594 -2.425781 L 4.832031 -2.425781 L 4.832031 -1.867188 Z M 1.808594 -2.820312 L 1.808594 -3.398438 L 4.832031 -3.398438 L 4.832031 -2.820312 Z "/>
</g>
<g id="glyph-1-8">
<path d="M 2.261719 -2.660156 C 3.421875 -2.726562 4.492188 -2.8125 5.492188 -2.921875 C 5.613281 -2.738281 5.726562 -2.566406 5.828125 -2.394531 L 6.226562 -2.671875 C 5.96875 -3.09375 5.59375 -3.585938 5.113281 -4.148438 L 4.726562 -3.914062 C 4.894531 -3.714844 5.054688 -3.507812 5.207031 -3.308594 C 4.433594 -3.21875 3.667969 -3.152344 2.894531 -3.113281 C 3.140625 -3.367188 3.421875 -3.78125 3.738281 -4.339844 L 6.199219 -4.339844 L 6.199219 -4.78125 L 4.445312 -4.78125 C 4.355469 -5.046875 4.261719 -5.28125 4.167969 -5.492188 L 3.679688 -5.414062 C 3.78125 -5.226562 3.875 -5.011719 3.96875 -4.78125 L 2.105469 -4.78125 L 2.105469 -4.339844 L 3.238281 -4.339844 C 2.839844 -3.671875 2.507812 -3.265625 2.246094 -3.105469 C 2.21875 -3.09375 2.195312 -3.082031 2.152344 -3.066406 Z M 0.851562 -5.367188 L 0.511719 -5.039062 C 0.964844 -4.71875 1.328125 -4.414062 1.585938 -4.132812 L 1.925781 -4.472656 C 1.632812 -4.773438 1.28125 -5.074219 0.851562 -5.367188 Z M 0.699219 -3.773438 L 0.359375 -3.445312 C 0.820312 -3.085938 1.179688 -2.746094 1.445312 -2.425781 L 1.785156 -2.765625 C 1.492188 -3.101562 1.132812 -3.441406 0.699219 -3.773438 Z M 1.40625 -1.992188 C 1.148438 -1.1875 0.839844 -0.394531 0.480469 0.378906 L 0.921875 0.574219 C 1.253906 -0.171875 1.554688 -0.980469 1.828125 -1.832031 Z M 3.738281 -2.367188 L 3.738281 0.535156 L 4.226562 0.535156 L 4.226562 -2.367188 Z M 2.582031 -2.375 C 2.554688 -1.578125 2.480469 -1.007812 2.351562 -0.652344 C 2.21875 -0.292969 1.988281 0.0117188 1.667969 0.28125 L 1.972656 0.660156 C 2.347656 0.351562 2.613281 -0.0195312 2.78125 -0.445312 C 2.925781 -0.859375 3.019531 -1.5 3.046875 -2.375 Z M 5.539062 0.535156 L 6.394531 0.535156 L 6.394531 0.09375 L 5.679688 0.09375 C 5.554688 0.09375 5.492188 0.0117188 5.492188 -0.148438 L 5.492188 -2.375 L 5.035156 -2.375 L 5.035156 -0.0859375 C 5.035156 0.328125 5.199219 0.535156 5.539062 0.535156 Z "/>
</g>
<g id="glyph-1-9">
<path d="M 5.214844 -4.238281 L 3.960938 -4.238281 L 3.960938 -3.265625 L 3.226562 -3.265625 L 3.226562 -4.808594 L 5.214844 -4.808594 Z M 4.359375 -3.265625 L 4.359375 -3.867188 L 5.214844 -3.867188 L 5.214844 -3.265625 Z M 5.671875 -3.265625 L 5.671875 -5.226562 L 2.773438 -5.226562 L 2.773438 -3.265625 L 2.3125 -3.265625 L 2.3125 -0.3125 L 2.78125 -0.3125 L 2.78125 -2.839844 L 5.679688 -2.839844 L 5.679688 -0.875 C 5.679688 -0.738281 5.601562 -0.667969 5.441406 -0.667969 L 4.867188 -0.6875 L 4.980469 -0.28125 L 5.574219 -0.28125 C 5.945312 -0.28125 6.140625 -0.445312 6.140625 -0.773438 L 6.140625 -3.265625 Z M 0.878906 -5.375 L 0.566406 -5.066406 C 1.007812 -4.734375 1.351562 -4.421875 1.613281 -4.125 L 1.921875 -4.441406 C 1.640625 -4.746094 1.292969 -5.058594 0.878906 -5.375 Z M 0.375 -3.78125 L 0.375 -3.339844 L 1.394531 -3.339844 C 1.152344 -2.96875 0.859375 -2.59375 0.511719 -2.214844 L 0.511719 -1.847656 L 1.535156 -1.847656 C 1.445312 -1.414062 1.328125 -1.019531 1.179688 -0.671875 C 0.898438 -0.59375 0.601562 -0.261719 0.285156 0.339844 L 0.640625 0.652344 C 0.941406 0.0664062 1.171875 -0.226562 1.332031 -0.226562 C 1.386719 -0.226562 1.445312 -0.207031 1.5 -0.160156 C 1.726562 0.0664062 1.972656 0.238281 2.253906 0.347656 C 2.492188 0.445312 2.839844 0.5 3.292969 0.511719 C 3.679688 0.527344 4.125 0.535156 4.625 0.535156 L 6.320312 0.535156 L 6.425781 0.0742188 C 5.667969 0.101562 5.046875 0.113281 4.566406 0.113281 C 4.101562 0.113281 3.679688 0.105469 3.320312 0.105469 C 2.941406 0.09375 2.640625 0.046875 2.425781 -0.0351562 C 2.207031 -0.132812 1.992188 -0.28125 1.785156 -0.472656 C 1.734375 -0.527344 1.671875 -0.566406 1.621094 -0.601562 C 1.765625 -0.960938 1.886719 -1.398438 1.988281 -1.933594 L 1.988281 -2.253906 L 1.085938 -2.253906 C 1.40625 -2.625 1.6875 -3.007812 1.925781 -3.398438 L 1.925781 -3.78125 Z M 3.347656 -2.460938 L 3.347656 -1.039062 L 5.09375 -1.039062 L 5.09375 -2.460938 Z M 4.6875 -1.414062 L 3.753906 -1.414062 L 3.753906 -2.085938 L 4.6875 -2.085938 Z "/>
</g>
<g id="glyph-1-10">
<path d="M 3.328125 -2.859375 C 3.195312 -2.859375 3.085938 -2.828125 3.011719 -2.746094 C 2.933594 -2.671875 2.894531 -2.574219 2.894531 -2.445312 C 2.894531 -2.332031 2.925781 -2.234375 3.007812 -2.152344 C 3.085938 -2.074219 3.179688 -2.035156 3.292969 -2.035156 C 3.359375 -2.035156 3.414062 -2.046875 3.441406 -2.058594 C 3.441406 -1.898438 3.394531 -1.753906 3.300781 -1.613281 C 3.1875 -1.480469 3.046875 -1.378906 2.875 -1.320312 L 2.875 -0.992188 C 3.152344 -1.066406 3.386719 -1.214844 3.558594 -1.425781 C 3.734375 -1.652344 3.820312 -1.914062 3.820312 -2.207031 C 3.820312 -2.398438 3.773438 -2.554688 3.6875 -2.671875 C 3.59375 -2.800781 3.472656 -2.859375 3.328125 -2.859375 Z "/>
</g>
<g id="glyph-1-11">
<path d="M 0.828125 -5.347656 L 0.507812 -5.035156 C 1.035156 -4.671875 1.445312 -4.328125 1.753906 -4.007812 L 2.074219 -4.332031 C 1.738281 -4.667969 1.320312 -5.007812 0.828125 -5.347656 Z M 0.671875 -3.78125 L 0.347656 -3.46875 C 0.851562 -3.105469 1.246094 -2.761719 1.535156 -2.433594 L 1.851562 -2.761719 C 1.535156 -3.101562 1.140625 -3.441406 0.671875 -3.78125 Z M 1.625 -1.925781 C 1.300781 -1.132812 0.921875 -0.359375 0.480469 0.394531 L 0.925781 0.59375 C 1.328125 -0.140625 1.6875 -0.925781 2.019531 -1.765625 Z M 3.535156 -1.808594 C 3.1875 -1.125 2.632812 -0.566406 1.875 -0.125 L 2.121094 0.28125 C 2.941406 -0.265625 3.527344 -0.960938 3.886719 -1.808594 L 4 -1.808594 L 4 0.640625 L 4.46875 0.640625 L 4.46875 -1.808594 L 4.59375 -1.808594 C 4.886719 -1.058594 5.398438 -0.386719 6.132812 0.21875 L 6.441406 -0.160156 C 5.734375 -0.648438 5.234375 -1.195312 4.933594 -1.808594 L 6.214844 -1.808594 L 6.214844 -2.238281 L 4.46875 -2.238281 L 4.46875 -2.988281 L 4 -2.988281 L 4 -2.238281 L 2.265625 -2.238281 L 2.265625 -1.808594 Z M 6.082031 -5.171875 L 2.386719 -5.171875 L 2.386719 -3.898438 L 2.839844 -3.898438 L 2.839844 -4.734375 L 5.625 -4.734375 L 5.625 -3.925781 L 6.082031 -3.925781 Z M 3.535156 -4.445312 C 3.507812 -4.035156 3.398438 -3.734375 3.21875 -3.546875 C 3.035156 -3.359375 2.71875 -3.195312 2.28125 -3.058594 L 2.558594 -2.699219 C 3.054688 -2.878906 3.40625 -3.09375 3.621094 -3.339844 C 3.8125 -3.574219 3.925781 -3.941406 3.960938 -4.445312 Z M 4.558594 -4.441406 L 4.558594 -3.378906 C 4.558594 -3.125 4.699219 -2.992188 4.988281 -2.992188 L 6.1875 -2.992188 L 6.1875 -3.398438 L 5.199219 -3.398438 C 5.066406 -3.398438 5 -3.460938 5 -3.574219 L 5 -4.441406 Z "/>
</g>
<g id="glyph-1-12">
<path d="M 2.6875 -3.832031 C 2.761719 -3.6875 2.832031 -3.527344 2.90625 -3.339844 L 1.765625 -3.339844 L 1.765625 -1.71875 L 5.980469 -1.71875 L 5.980469 -3.339844 L 4.859375 -3.339844 C 4.941406 -3.492188 5 -3.660156 5.054688 -3.832031 L 6.046875 -3.832031 L 6.046875 -5.195312 L 0.914062 -5.195312 L 0.914062 -3.011719 C 0.90625 -1.667969 0.695312 -0.566406 0.273438 0.285156 L 0.625 0.605469 C 1.121094 -0.398438 1.375 -1.605469 1.378906 -3.011719 L 1.378906 -3.832031 Z M 4.582031 -3.832031 C 4.539062 -3.671875 4.480469 -3.507812 4.40625 -3.339844 L 3.320312 -3.339844 C 3.265625 -3.519531 3.207031 -3.6875 3.152344 -3.832031 Z M 5.527344 -2.082031 L 4.046875 -2.082031 L 4.046875 -2.980469 L 5.527344 -2.980469 Z M 3.648438 -2.082031 L 2.21875 -2.082031 L 2.21875 -2.980469 L 3.648438 -2.980469 Z M 2.945312 -2.886719 L 2.632812 -2.785156 C 2.753906 -2.585938 2.847656 -2.375 2.921875 -2.148438 L 3.238281 -2.226562 C 3.160156 -2.472656 3.058594 -2.695312 2.945312 -2.886719 Z M 4.773438 -2.878906 C 4.679688 -2.625 4.574219 -2.414062 4.453125 -2.238281 L 4.773438 -2.125 C 4.898438 -2.320312 5.007812 -2.539062 5.101562 -2.792969 Z M 5.761719 -1.375 L 1.992188 -1.375 L 1.992188 0.667969 L 2.445312 0.667969 L 2.445312 0.441406 L 5.308594 0.441406 L 5.308594 0.671875 L 5.761719 0.671875 Z M 2.445312 0.101562 L 2.445312 -0.308594 L 4.972656 -0.308594 L 4.972656 -0.625 L 2.445312 -0.625 L 2.445312 -1.027344 L 5.308594 -1.027344 L 5.308594 0.101562 Z M 5.574219 -4.773438 L 5.574219 -4.238281 L 1.378906 -4.238281 L 1.378906 -4.773438 Z "/>
</g>
<g id="glyph-1-13">
<path d="M 2.421875 -1.695312 L 0.511719 -1.695312 L 0.511719 0.566406 L 0.964844 0.566406 L 0.964844 0.214844 L 2.421875 0.214844 Z M 0.964844 -0.214844 L 0.964844 -1.265625 L 1.964844 -1.265625 L 1.964844 -0.214844 Z M 0.28125 -4.566406 L 0.28125 -4.125 L 2.699219 -4.125 L 2.699219 -4.566406 L 1.519531 -4.566406 L 1.78125 -4.660156 C 1.707031 -4.90625 1.605469 -5.171875 1.472656 -5.46875 L 1.011719 -5.339844 C 1.148438 -5.09375 1.253906 -4.832031 1.347656 -4.566406 Z M 0.554688 -3.601562 L 0.554688 -3.179688 L 2.375 -3.179688 L 2.375 -3.601562 Z M 0.554688 -2.6875 L 0.554688 -2.261719 L 2.375 -2.261719 L 2.375 -2.6875 Z M 4.433594 -5.054688 L 4.433594 0.199219 L 4.886719 0.199219 L 4.886719 -5.054688 Z M 5.667969 -5.421875 L 5.667969 0.652344 L 6.128906 0.652344 L 6.128906 -5.421875 Z M 3.214844 -5.398438 L 3.214844 -2.59375 C 3.199219 -1.246094 2.941406 -0.273438 2.433594 0.339844 L 2.785156 0.648438 C 3.359375 -0.0351562 3.660156 -1.113281 3.671875 -2.59375 L 3.671875 -5.398438 Z "/>
</g>
<g id="glyph-1-14">
<path d="M 0.585938 -1.101562 C 0.546875 -0.5 0.441406 0.0273438 0.265625 0.488281 L 0.679688 0.613281 C 0.839844 0.132812 0.941406 -0.425781 0.980469 -1.054688 Z M 1.652344 -1.152344 L 1.285156 -1.078125 C 1.375 -0.679688 1.445312 -0.214844 1.507812 0.308594 L 1.921875 0.214844 C 1.839844 -0.28125 1.746094 -0.734375 1.652344 -1.152344 Z M 2.199219 -2.867188 L 1.867188 -2.761719 C 1.941406 -2.558594 2.007812 -2.347656 2.066406 -2.121094 C 1.71875 -2.019531 1.367188 -1.941406 1.007812 -1.878906 C 1.394531 -2.339844 1.886719 -3.125 2.472656 -4.238281 L 2.054688 -4.394531 C 1.898438 -4.085938 1.753906 -3.808594 1.621094 -3.554688 C 1.347656 -3.5 1.078125 -3.460938 0.8125 -3.425781 C 1.132812 -3.878906 1.441406 -4.488281 1.746094 -5.246094 L 1.3125 -5.421875 C 1.078125 -4.726562 0.808594 -4.105469 0.488281 -3.566406 C 0.433594 -3.488281 0.367188 -3.425781 0.292969 -3.394531 L 0.414062 -2.980469 C 0.738281 -3.035156 1.066406 -3.085938 1.394531 -3.148438 C 1.074219 -2.585938 0.792969 -2.1875 0.566406 -1.945312 C 0.511719 -1.894531 0.441406 -1.851562 0.359375 -1.820312 L 0.480469 -1.40625 C 1.011719 -1.472656 1.574219 -1.601562 2.160156 -1.785156 C 2.1875 -1.6875 2.207031 -1.578125 2.234375 -1.472656 L 2.585938 -1.566406 C 2.472656 -2.054688 2.347656 -2.488281 2.199219 -2.867188 Z M 2.285156 -1.328125 L 1.945312 -1.214844 C 2.085938 -0.945312 2.214844 -0.640625 2.320312 -0.292969 L 2.679688 -0.453125 C 2.566406 -0.765625 2.433594 -1.058594 2.285156 -1.328125 Z M 2.519531 -4.875 L 2.519531 -4.433594 L 4.140625 -4.433594 L 4.140625 -3.875 L 2.792969 -3.875 L 2.792969 -1.519531 L 3.699219 -1.519531 C 3.421875 -0.914062 2.980469 -0.414062 2.367188 -0.0117188 L 2.613281 0.398438 C 3.300781 -0.101562 3.785156 -0.738281 4.082031 -1.519531 L 4.152344 -1.519531 L 4.152344 0.621094 L 4.613281 0.621094 L 4.613281 -1.519531 L 4.6875 -1.519531 C 4.960938 -0.832031 5.425781 -0.214844 6.085938 0.347656 L 6.398438 -0.046875 C 5.773438 -0.480469 5.332031 -0.972656 5.074219 -1.519531 L 5.992188 -1.519531 L 5.992188 -3.875 L 4.613281 -3.875 L 4.613281 -4.433594 L 6.265625 -4.433594 L 6.265625 -4.875 L 4.613281 -4.875 L 4.613281 -5.414062 L 4.140625 -5.414062 L 4.140625 -4.875 Z M 5.582031 -1.921875 L 4.574219 -1.921875 L 4.574219 -3.472656 L 5.582031 -3.472656 Z M 4.1875 -1.921875 L 3.199219 -1.921875 L 3.199219 -3.472656 L 4.1875 -3.472656 Z M 5.035156 -3.179688 C 4.960938 -2.808594 4.875 -2.492188 4.78125 -2.246094 L 5.058594 -2.148438 C 5.167969 -2.421875 5.261719 -2.738281 5.339844 -3.101562 Z M 3.714844 -3.132812 L 3.425781 -3.046875 C 3.535156 -2.761719 3.625 -2.464844 3.707031 -2.160156 L 3.992188 -2.234375 C 3.914062 -2.582031 3.820312 -2.878906 3.714844 -3.132812 Z "/>
</g>
<g id="glyph-1-15">
<path d="M 1.921875 -4.992188 L 0.421875 -4.992188 L 0.421875 -0.078125 L 0.859375 -0.078125 L 0.859375 -0.625 L 1.488281 -0.625 L 1.488281 -0.238281 L 1.921875 -0.238281 Z M 0.859375 -1.054688 L 0.859375 -4.574219 L 1.488281 -4.574219 L 1.488281 -1.054688 Z M 2.753906 -3.414062 L 3.453125 -3.414062 L 3.453125 -2.472656 L 2.753906 -2.472656 Z M 3.453125 -3.8125 L 2.753906 -3.8125 L 2.753906 -4.765625 L 3.453125 -4.765625 Z M 5.898438 0.585938 C 6.101562 0.574219 6.234375 0.5 6.285156 0.378906 C 6.355469 0.246094 6.386719 -0.105469 6.386719 -0.671875 L 6.058594 -0.800781 C 6.058594 -0.453125 6.046875 -0.199219 6.035156 -0.0390625 C 6.019531 0.09375 5.96875 0.167969 5.886719 0.171875 L 5.632812 0.171875 C 5.558594 0.160156 5.527344 0.113281 5.527344 0.0351562 L 5.527344 -1.652344 L 5.28125 -1.652344 C 5.347656 -1.875 5.398438 -2.101562 5.445312 -2.339844 L 6.199219 -2.339844 L 6.199219 -2.78125 L 5.519531 -2.78125 C 5.574219 -3.195312 5.605469 -3.640625 5.613281 -4.121094 L 5.613281 -4.726562 L 6.226562 -4.726562 L 6.226562 -5.167969 L 4.21875 -5.167969 L 4.21875 -4.726562 L 5.21875 -4.726562 L 5.21875 -4.121094 C 5.214844 -3.652344 5.179688 -3.207031 5.121094 -2.78125 L 4.585938 -2.78125 C 4.660156 -3.226562 4.734375 -3.746094 4.800781 -4.339844 L 4.398438 -4.378906 C 4.347656 -3.785156 4.261719 -3.105469 4.148438 -2.339844 L 5.039062 -2.339844 C 4.785156 -1.167969 4.273438 -0.261719 3.5 0.386719 L 3.832031 0.679688 C 4.394531 0.1875 4.828125 -0.441406 5.125 -1.214844 L 5.125 0.105469 C 5.125 0.425781 5.292969 0.585938 5.625 0.585938 Z M 3.621094 -1.78125 L 3.300781 -1.585938 C 3.40625 -1.386719 3.5 -1.1875 3.59375 -0.992188 C 3.3125 -0.765625 3.035156 -0.566406 2.753906 -0.40625 L 2.753906 -2.058594 L 3.855469 -2.058594 L 3.855469 -5.1875 L 2.332031 -5.1875 L 2.332031 -0.378906 C 2.332031 -0.285156 2.300781 -0.21875 2.234375 -0.179688 L 2.359375 0.273438 C 2.90625 -0.0117188 3.367188 -0.3125 3.753906 -0.625 C 3.808594 -0.492188 3.859375 -0.367188 3.90625 -0.238281 L 4.246094 -0.480469 C 4.101562 -0.851562 3.894531 -1.285156 3.621094 -1.78125 Z "/>
</g>
<g id="glyph-1-16">
<path d="M 1.726562 -1.261719 L 1.726562 -0.3125 L 2.625 -0.3125 C 2.59375 -0.261719 2.554688 -0.199219 2.5 -0.140625 C 2.328125 0.0195312 2.019531 0.148438 1.59375 0.246094 L 1.820312 0.59375 C 2.28125 0.472656 2.613281 0.3125 2.820312 0.105469 C 3.019531 -0.121094 3.132812 -0.414062 3.148438 -0.785156 L 3.148438 -1.328125 L 2.746094 -1.328125 L 2.746094 -0.785156 C 2.746094 -0.746094 2.738281 -0.707031 2.738281 -0.660156 L 2.113281 -0.660156 L 2.113281 -1.261719 Z M 3.585938 -1.332031 L 3.585938 0.59375 L 4.007812 0.59375 L 4.007812 -0.3125 L 5.011719 -0.3125 L 5.011719 -1.246094 L 4.625 -1.246094 L 4.625 -0.660156 L 4.007812 -0.660156 L 4.007812 -1.332031 Z M 1.046875 -4.179688 L 2.625 -4.179688 L 2.625 -3.828125 L 1.046875 -3.828125 Z M 2.625 -4.492188 L 1.046875 -4.492188 L 1.046875 -4.847656 L 2.625 -4.847656 Z M 4.019531 -4.179688 L 5.613281 -4.179688 L 5.613281 -3.820312 L 4.019531 -3.820312 Z M 5.613281 -4.488281 L 4.019531 -4.488281 L 4.019531 -4.839844 L 5.613281 -4.839844 Z M 3.066406 -5.199219 L 0.601562 -5.199219 L 0.601562 0.667969 L 1.046875 0.667969 L 1.046875 -3.488281 L 2.261719 -3.488281 C 1.914062 -3.007812 1.648438 -2.71875 1.453125 -2.625 L 1.519531 -2.328125 C 1.765625 -2.347656 2.039062 -2.367188 2.332031 -2.394531 C 2 -2.054688 1.71875 -1.839844 1.5 -1.753906 L 1.566406 -1.460938 C 1.992188 -1.5 2.460938 -1.554688 2.953125 -1.625 C 2.972656 -1.554688 2.992188 -1.472656 3.011719 -1.394531 L 3.320312 -1.464844 C 3.238281 -1.785156 3.152344 -2.074219 3.058594 -2.3125 L 2.765625 -2.21875 C 2.808594 -2.125 2.839844 -2.019531 2.875 -1.90625 L 2.082031 -1.800781 C 2.378906 -1.992188 2.773438 -2.367188 3.261719 -2.925781 L 2.933594 -3.058594 C 2.820312 -2.933594 2.714844 -2.808594 2.605469 -2.6875 L 1.941406 -2.640625 C 2.125 -2.785156 2.375 -3.066406 2.679688 -3.480469 L 2.660156 -3.488281 L 3.066406 -3.488281 Z M 5.613281 -3.480469 L 5.613281 -0.0117188 C 5.613281 0.152344 5.527344 0.238281 5.367188 0.238281 C 5.152344 0.238281 4.921875 0.234375 4.671875 0.21875 L 4.78125 0.625 C 5.019531 0.632812 5.273438 0.640625 5.527344 0.640625 C 5.878906 0.640625 6.058594 0.464844 6.058594 0.125 L 6.058594 -5.199219 L 3.582031 -5.199219 L 3.582031 -3.480469 L 4.199219 -3.480469 C 3.855469 -3.007812 3.59375 -2.726562 3.40625 -2.640625 L 3.472656 -2.339844 C 3.726562 -2.359375 4 -2.378906 4.292969 -2.40625 C 3.953125 -2.066406 3.671875 -1.851562 3.453125 -1.765625 L 3.519531 -1.472656 C 3.953125 -1.511719 4.421875 -1.566406 4.925781 -1.632812 C 4.953125 -1.546875 4.972656 -1.453125 5 -1.359375 L 5.308594 -1.441406 C 5.21875 -1.773438 5.121094 -2.058594 5.011719 -2.3125 L 4.71875 -2.21875 C 4.761719 -2.125 4.800781 -2.019531 4.839844 -1.914062 L 4.027344 -1.808594 C 4.332031 -2.007812 4.726562 -2.378906 5.214844 -2.925781 L 4.886719 -3.058594 C 4.78125 -2.933594 4.671875 -2.8125 4.566406 -2.699219 C 4.3125 -2.679688 4.085938 -2.660156 3.886719 -2.648438 C 4.074219 -2.792969 4.320312 -3.066406 4.621094 -3.480469 Z "/>
</g>
<g id="glyph-1-17">
<path d="M 1.195312 -3.414062 L 1.195312 -2.667969 L 0.441406 -2.667969 L 0.441406 -2.226562 L 1.195312 -2.226562 L 1.195312 -0.113281 C 0.90625 -0.0546875 0.613281 0 0.320312 0.046875 L 0.433594 0.507812 C 1.148438 0.367188 1.808594 0.191406 2.421875 -0.0117188 L 2.421875 -0.460938 C 2.167969 -0.378906 1.914062 -0.300781 1.648438 -0.226562 L 1.648438 -2.226562 L 2.398438 -2.226562 L 2.398438 -2.667969 L 1.648438 -2.667969 L 1.648438 -3.414062 L 2.148438 -3.414062 L 2.148438 -3.832031 L 0.761719 -3.832031 C 1 -4.167969 1.214844 -4.527344 1.414062 -4.921875 C 1.652344 -4.632812 1.933594 -4.246094 2.253906 -3.753906 L 2.558594 -4.074219 C 2.226562 -4.535156 1.886719 -4.96875 1.535156 -5.378906 L 1.207031 -5.378906 C 0.914062 -4.792969 0.59375 -4.273438 0.234375 -3.832031 L 0.492188 -3.480469 C 0.558594 -3.566406 0.625 -3.660156 0.699219 -3.753906 L 0.699219 -3.414062 Z M 0.699219 -1.8125 L 0.351562 -1.699219 C 0.464844 -1.285156 0.558594 -0.859375 0.632812 -0.421875 L 0.980469 -0.507812 C 0.898438 -1 0.808594 -1.433594 0.699219 -1.8125 Z M 2.105469 -1.867188 C 2.027344 -1.425781 1.933594 -1.066406 1.828125 -0.78125 L 2.152344 -0.667969 C 2.265625 -0.988281 2.367188 -1.351562 2.445312 -1.78125 Z M 6.113281 -2.625 L 6.113281 -3.558594 L 6.367188 -3.558594 L 6.367188 -3.921875 L 6.113281 -3.921875 L 6.113281 -4.859375 L 5.171875 -4.859375 L 5.171875 -5.394531 L 4.753906 -5.394531 L 4.753906 -4.859375 L 4.035156 -4.859375 L 4.035156 -4.488281 L 4.753906 -4.488281 L 4.753906 -3.921875 L 3.855469 -3.921875 L 3.855469 -3.558594 L 4.753906 -3.558594 L 4.753906 -3.007812 L 4.039062 -3.007812 L 4.039062 -2.625 L 4.753906 -2.625 L 4.753906 -2.09375 L 4.035156 -2.09375 L 4.035156 -1.71875 L 4.753906 -1.71875 L 4.753906 -1.21875 L 3.832031 -1.21875 L 3.832031 -0.832031 L 4.753906 -0.832031 L 4.753906 -0.160156 L 5.171875 -0.160156 L 5.171875 -0.832031 L 6.265625 -0.832031 L 6.265625 -1.21875 L 5.171875 -1.21875 L 5.171875 -1.71875 L 6.09375 -1.71875 L 6.09375 -2.09375 L 5.171875 -2.09375 L 5.171875 -2.625 Z M 5.171875 -4.488281 L 5.71875 -4.488281 L 5.71875 -3.921875 L 5.171875 -3.921875 Z M 5.171875 -3.558594 L 5.71875 -3.558594 L 5.71875 -3.007812 L 5.171875 -3.007812 Z M 2.511719 -4.945312 L 2.511719 -4.546875 L 3.320312 -4.546875 C 3.125 -4.011719 2.90625 -3.511719 2.660156 -3.058594 L 2.660156 -2.726562 L 3.421875 -2.726562 C 3.394531 -2.152344 3.320312 -1.652344 3.195312 -1.214844 C 3.085938 -1.472656 2.992188 -1.785156 2.90625 -2.152344 L 2.554688 -2.011719 C 2.671875 -1.492188 2.820312 -1.054688 2.992188 -0.695312 C 2.820312 -0.320312 2.585938 -0.0195312 2.300781 0.21875 L 2.519531 0.59375 C 2.808594 0.359375 3.046875 0.0742188 3.238281 -0.273438 C 3.347656 -0.125 3.460938 0 3.59375 0.09375 C 4.007812 0.398438 4.6875 0.554688 5.632812 0.554688 L 6.328125 0.554688 L 6.414062 0.09375 C 6.074219 0.105469 5.746094 0.121094 5.425781 0.121094 C 4.695312 0.121094 4.152344 -0.0078125 3.8125 -0.246094 C 3.679688 -0.339844 3.558594 -0.492188 3.441406 -0.695312 C 3.667969 -1.28125 3.792969 -2 3.8125 -2.859375 L 3.8125 -3.113281 L 3.160156 -3.113281 C 3.359375 -3.507812 3.566406 -4 3.78125 -4.585938 L 3.78125 -4.945312 Z "/>
</g>
</g>
<image id="source-972" x="0" y="0" width="0" height="0"/>
<mask id="mask-0">
<use xlink:href="#source-972"/>
</mask>
</defs>
<g fill="rgb(30.196078%, 81.568627%, 88.235294%)" fill-opacity="1">
<use xlink:href="#glyph-0-0" x="30" y="26.879883"/>
<use xlink:href="#glyph-0-1" x="32" y="26.879883"/>
<use xlink:href="#glyph-0-1" x="34" y="26.879883"/>
</g>
<g fill="rgb(30.196078%, 81.568627%, 88.235294%)" fill-opacity="1">
<use xlink:href="#glyph-1-0" x="36" y="27.067383"/>
<use xlink:href="#glyph-1-1" x="43" y="27.067383"/>
<use xlink:href="#glyph-1-2" x="50" y="27.067383"/>
<use xlink:href="#glyph-1-3" x="57" y="27.067383"/>
<use xlink:href="#glyph-1-4" x="64" y="27.067383"/>
<use xlink:href="#glyph-1-5" x="71" y="27.067383"/>
<use xlink:href="#glyph-1-6" x="78" y="27.067383"/>
<use xlink:href="#glyph-1-7" x="85" y="27.067383"/>
<use xlink:href="#glyph-1-3" x="92" y="27.067383"/>
<use xlink:href="#glyph-1-8" x="99" y="27.067383"/>
<use xlink:href="#glyph-1-9" x="106" y="27.067383"/>
<use xlink:href="#glyph-1-10" x="113" y="27.067383"/>
<use xlink:href="#glyph-1-11" x="120" y="27.067383"/>
<use xlink:href="#glyph-1-12" x="127" y="27.067383"/>
<use xlink:href="#glyph-1-13" x="134" y="27.067383"/>
<use xlink:href="#glyph-1-14" x="141" y="27.067383"/>
<use xlink:href="#glyph-1-15" x="148" y="27.067383"/>
<use xlink:href="#glyph-1-16" x="155" y="27.067383"/>
<use xlink:href="#glyph-1-17" x="162" y="27.067383"/>
</g>
</svg>
