<?xml version="1.0" encoding="UTF-8"?>
<svg xmlns="http://www.w3.org/2000/svg" xmlns:xlink="http://www.w3.org/1999/xlink" width="1920" height="1080" viewBox="0 0 1920 1080">
<defs>
<g>
<g id="glyph-0-0">
<path d="M 1.058594 -1.582031 C 1.207031 -1.582031 1.328125 -1.621094 1.410156 -1.707031 C 1.496094 -1.789062 1.539062 -1.890625 1.539062 -2.007812 C 1.539062 -2.109375 1.496094 -2.203125 1.417969 -2.285156 C 1.335938 -2.371094 1.210938 -2.414062 1.046875 -2.414062 C 0.882812 -2.414062 0.761719 -2.371094 0.6875 -2.285156 C 0.617188 -2.203125 0.578125 -2.101562 0.578125 -1.988281 C 0.578125 -1.859375 0.625 -1.761719 0.722656 -1.6875 C 0.816406 -1.617188 0.929688 -1.582031 1.058594 -1.582031 Z M 1.078125 -0.234375 C 1.238281 -0.234375 1.367188 -0.277344 1.472656 -0.363281 C 1.578125 -0.449219 1.628906 -0.574219 1.628906 -0.746094 C 1.628906 -0.921875 1.574219 -1.054688 1.46875 -1.144531 C 1.359375 -1.234375 1.222656 -1.28125 1.054688 -1.28125 C 0.890625 -1.28125 0.757812 -1.234375 0.652344 -1.140625 C 0.550781 -1.046875 0.5 -0.921875 0.5 -0.757812 C 0.5 -0.613281 0.546875 -0.492188 0.640625 -0.386719 C 0.734375 -0.285156 0.882812 -0.234375 1.078125 -0.234375 Z M 0.59375 -1.449219 C 0.496094 -1.488281 0.421875 -1.539062 0.371094 -1.589844 C 0.269531 -1.691406 0.21875 -1.824219 0.21875 -1.988281 C 0.21875 -2.191406 0.292969 -2.363281 0.441406 -2.507812 C 0.585938 -2.652344 0.796875 -2.726562 1.066406 -2.726562 C 1.328125 -2.726562 1.53125 -2.660156 1.679688 -2.519531 C 1.828125 -2.382812 1.902344 -2.222656 1.902344 -2.039062 C 1.902344 -1.871094 1.859375 -1.734375 1.773438 -1.628906 C 1.722656 -1.570312 1.648438 -1.511719 1.546875 -1.453125 C 1.660156 -1.402344 1.75 -1.339844 1.8125 -1.273438 C 1.933594 -1.148438 1.996094 -0.984375 1.996094 -0.78125 C 1.996094 -0.542969 1.914062 -0.339844 1.753906 -0.171875 C 1.59375 -0.00390625 1.363281 0.078125 1.070312 0.078125 C 0.804688 0.078125 0.582031 0.0078125 0.398438 -0.136719 C 0.214844 -0.28125 0.125 -0.488281 0.125 -0.761719 C 0.125 -0.921875 0.164062 -1.0625 0.242188 -1.179688 C 0.320312 -1.296875 0.4375 -1.386719 0.59375 -1.449219 Z "/>
</g>
<g id="glyph-0-1">
<path d="M 0.0585938 -2.035156 L 0.5 -2.035156 L 0.964844 -1.316406 L 1.441406 -2.035156 L 1.855469 -2.023438 L 1.171875 -1.042969 L 1.886719 0 L 1.449219 0 L 0.945312 -0.761719 L 0.453125 0 L 0.0195312 0 L 0.738281 -1.042969 Z "/>
</g>
<g id="glyph-0-2">
<rect x="0" y="0" width="0" height="0" mask="url(#mask-0)"/>
</g>
<g id="glyph-0-3">
<path d="M 1.726562 -1.144531 L 1.304688 -2.375 L 0.855469 -1.144531 Z M 1.105469 -2.789062 L 1.535156 -2.789062 L 2.546875 0 L 2.132812 0 L 1.851562 -0.835938 L 0.746094 -0.835938 L 0.445312 0 L 0.0585938 0 Z "/>
</g>
<g id="glyph-0-4">
<path d="M 0.371094 -1.925781 L 0.371094 -2.1875 C 0.617188 -2.210938 0.792969 -2.253906 0.890625 -2.308594 C 0.988281 -2.363281 1.058594 -2.5 1.105469 -2.707031 L 1.375 -2.707031 L 1.375 0 L 1.011719 0 L 1.011719 -1.925781 Z "/>
</g>
<g id="glyph-0-5">
<path d="M 1.050781 -2.71875 C 1.402344 -2.71875 1.660156 -2.574219 1.816406 -2.285156 C 1.9375 -2.0625 1.996094 -1.753906 1.996094 -1.363281 C 1.996094 -0.992188 1.941406 -0.6875 1.832031 -0.445312 C 1.671875 -0.0976562 1.414062 0.0742188 1.050781 0.0742188 C 0.722656 0.0742188 0.480469 -0.0664062 0.320312 -0.351562 C 0.1875 -0.589844 0.121094 -0.90625 0.121094 -1.304688 C 0.121094 -1.613281 0.160156 -1.878906 0.242188 -2.101562 C 0.390625 -2.511719 0.660156 -2.71875 1.050781 -2.71875 Z M 1.046875 -0.238281 C 1.226562 -0.238281 1.367188 -0.316406 1.472656 -0.472656 C 1.578125 -0.628906 1.628906 -0.921875 1.628906 -1.351562 C 1.628906 -1.660156 1.589844 -1.914062 1.515625 -2.113281 C 1.441406 -2.3125 1.292969 -2.410156 1.074219 -2.410156 C 0.871094 -2.410156 0.722656 -2.316406 0.632812 -2.128906 C 0.539062 -1.9375 0.492188 -1.660156 0.492188 -1.292969 C 0.492188 -1.015625 0.523438 -0.792969 0.582031 -0.621094 C 0.671875 -0.367188 0.828125 -0.238281 1.046875 -0.238281 Z "/>
</g>
</g>
<image id="source-715" x="0" y="0" width="0" height="0"/>
<mask id="mask-0">
<use xlink:href="#source-715"/>
</mask>
</defs>
<g fill="rgb(33.333333%, 33.333333%, 46.666667%)" fill-opacity="1">
<use xlink:href="#glyph-0-0" x="30" y="22.995117"/>
<use xlink:href="#glyph-0-1" x="32" y="22.995117"/>
<use xlink:href="#glyph-0-2" x="34" y="22.995117"/>
<use xlink:href="#glyph-0-3" x="35" y="22.995117"/>
<use xlink:href="#glyph-0-4" x="37" y="22.995117"/>
<use xlink:href="#glyph-0-5" x="39" y="22.995117"/>
<use xlink:href="#glyph-0-5" x="41" y="22.995117"/>
</g>
</svg>
